<?xml version="1.0" encoding="UTF-8"?>
<svg width="517px" height="501px" viewBox="0 0 517 501" version="1.1" xmlns="http://www.w3.org/2000/svg" xmlns:xlink="http://www.w3.org/1999/xlink">
    <!-- Generator: Sketch 49.2 (51160) - http://www.bohemiancoding.com/sketch -->
    <title>spinner</title>
    <desc>Created with Sketch.</desc>
    <defs></defs>
    <g id="Page-1" stroke="none" stroke-width="1" fill="none" fill-rule="evenodd">
        <g id="Artboard" fill="#FFFFFF" fill-rule="nonzero">
            <g id="spinner">
                <path d="M516.727,258.696 C516.062,223.871 508.506,189.156 494.552,157.413 C480.644,125.642 460.458,96.862 435.676,73.08 C410.909,49.28 381.537,30.465 349.747,18.053 C317.974,5.593 283.81,-0.359 250.06,0.363 C216.305,1.031 182.7,8.37 151.969,21.902 C121.215,35.39 93.354,54.96 70.337,78.973 C47.304,102.974 29.108,131.425 17.115,162.202 C5.077,192.962 -0.66,226.013 0.06,258.696 C0.73,291.384 7.853,323.878 20.963,353.595 C34.03,383.333 52.982,410.276 76.229,432.526 C99.463,454.794 126.995,472.372 156.757,483.943 C186.506,495.559 218.447,501.079 250.06,500.362 C281.68,499.691 313.061,492.782 341.767,480.094 C370.491,467.448 396.514,449.115 417.998,426.633 C439.501,404.164 456.459,377.553 467.609,348.806 C474.399,331.379 479.005,313.182 481.433,294.744 C482.082,294.781 482.735,294.807 483.393,294.807 C501.802,294.807 516.726,279.884 516.726,261.474 C516.726,260.538 516.677,259.613 516.602,258.697 L516.727,258.696 Z M463.762,347.21 C451.536,374.92 433.822,400.022 412.107,420.742 C390.404,441.474 364.711,457.818 336.98,468.549 C309.256,479.319 279.537,484.408 250.061,483.695 C220.58,483.018 191.417,476.541 164.738,464.698 C138.046,452.892 113.861,435.797 93.908,414.849 C73.94,393.911 58.217,369.138 47.907,342.422 C37.558,315.71 32.684,287.101 33.395,258.694 C34.073,230.281 40.336,202.229 51.756,176.563 C63.14,150.886 79.619,127.62 99.801,108.433 C119.973,89.231 143.827,74.126 169.527,64.238 C195.224,54.31 222.722,49.651 250.061,50.361 C277.404,51.041 304.347,57.089 329,68.087 C353.662,79.05 376.008,94.911 394.429,114.328 C412.865,133.733 427.351,156.669 436.82,181.353 C446.324,206.037 450.768,232.425 450.061,258.695 L450.186,258.695 C450.11,259.611 450.061,260.536 450.061,261.472 C450.061,278.665 463.079,292.812 479.793,294.609 C476.551,312.747 471.184,330.453 463.762,347.21 Z" id="Shape"></path>
            </g>
        </g>
    </g>
</svg>